<?xml version="1.0" encoding="utf-8"?>
<!-- Generator: Adobe Illustrator 21.1.0, SVG Export Plug-In . SVG Version: 6.00 Build 0)  -->
<svg version="1.1" id="Layer_1" xmlns="http://www.w3.org/2000/svg" xmlns:xlink="http://www.w3.org/1999/xlink" x="0px" y="0px"
	 viewBox="0 0 1391.1 837.6" style="enable-background:new 0 0 1391.1 837.6;" xml:space="preserve">
<style type="text/css">
	.st0{fill:#FFA57E;stroke:#FFFFFF;stroke-miterlimit:10;}
	.st1{opacity:0.2;}
	.st2{fill:none;stroke:#FFA57E;}
	.st3{fill:none;stroke:#1C5FF0;}
	.st4{fill:#FFFFFF;stroke:#FFFFFF;}
	.st5{font-family:'ArialMT';}
	.st6{font-size:8px;}
	.st7{letter-spacing:1;}
	.st8{fill:#FFFFFF;stroke:#A6A6A6;stroke-miterlimit:10;}
	.st9{font-family:'Arial-BoldMT';}
	.st10{font-size:26.7486px;}
	.st11{letter-spacing:3;}
	.st12{font-size:10.8675px;}
	.st13{fill:#FFFFFF;stroke:#FFA57E;stroke-miterlimit:10;}
	.st14{fill:#FFA57E;}
	.st15{font-size:14.4223px;}
	.st16{fill:#FFFFFF;stroke:#000000;stroke-miterlimit:10;}
	.st17{fill:#FFFFFF;stroke:#1C5FF0;stroke-miterlimit:10;}
	.st18{fill:#1C5FF0;}
	.st19{fill:none;stroke:#000000;stroke-miterlimit:10;}
	.st20{fill:#9F9F9F;stroke:#000000;stroke-width:0.5;stroke-miterlimit:10;}
	.st21{fill:#404040;stroke:#000000;stroke-width:0.5;stroke-miterlimit:10;}
	.st22{fill:#808080;stroke:#000000;stroke-width:0.5;stroke-miterlimit:10;}
	.st23{fill:#DFDFDF;stroke:#000000;stroke-width:0.5;stroke-miterlimit:10;}
	.st24{stroke:#000000;stroke-width:0.5;stroke-miterlimit:10;}
	.st25{fill:#606060;stroke:#000000;stroke-width:0.5;stroke-miterlimit:10;}
	.st26{fill:#BFBFBF;stroke:#000000;stroke-width:0.5;stroke-miterlimit:10;}
	.st27{fill:#202020;stroke:#000000;stroke-width:0.5;stroke-miterlimit:10;}
	.st28{stroke:#FFFFFF;stroke-miterlimit:10;}
	.st29{fill:#1C5FF0;stroke:#FFFFFF;stroke-miterlimit:10;}
</style>
<g>
	<g>
		<g>
			<rect x="1304.2" y="205.8" class="st0" width="6.7" height="91.2"/>
		</g>
	</g>
	<g>
		<g>
			<rect x="1297.2" y="218.8" class="st0" width="6.7" height="78.1"/>
		</g>
	</g>
	<g>
		<g>
			<rect x="1290.1" y="237.1" class="st0" width="6.7" height="59.9"/>
		</g>
	</g>
	<g>
		<g>
			<rect x="1283.1" y="270.9" class="st0" width="6.7" height="26"/>
		</g>
	</g>
	<g>
		<g>
			<rect x="1276" y="268.3" class="st0" width="6.7" height="28.7"/>
		</g>
	</g>
	<g>
		<g>
			<rect x="1269" y="237.1" class="st0" width="6.7" height="59.9"/>
		</g>
	</g>
	<g>
		<g>
			<rect x="1261.9" y="219" class="st0" width="6.7" height="78"/>
		</g>
	</g>
	<g>
		<g>
			<rect x="1254.8" y="192.9" class="st0" width="6.7" height="104.1"/>
		</g>
	</g>
	<g>
		<g>
			<rect x="1240.7" y="205.5" class="st0" width="6.7" height="91.5"/>
		</g>
	</g>
	<g>
		<g>
			<rect x="1233.7" y="217.7" class="st0" width="6.7" height="79.3"/>
		</g>
	</g>
	<g>
		<g>
			<rect x="1226.6" y="186.6" class="st0" width="6.7" height="110.4"/>
		</g>
	</g>
	<g>
		<g>
			<rect x="1219.6" y="139.5" class="st0" width="6.7" height="157.5"/>
		</g>
	</g>
	<g>
		<g>
			<rect x="1212.5" y="160.4" class="st0" width="6.7" height="136.6"/>
		</g>
	</g>
	<g>
		<g>
			<rect x="1205.4" y="206.2" class="st0" width="6.7" height="90.8"/>
		</g>
	</g>
	<g>
		<g>
			<rect x="1198.4" y="134.6" class="st0" width="6.7" height="162.4"/>
		</g>
	</g>
	<g>
		<g>
			<rect x="1191.3" y="174.5" class="st0" width="6.7" height="122.5"/>
		</g>
	</g>
	<g>
		<g>
			<rect x="1184.3" y="262.5" class="st0" width="6.7" height="34.5"/>
		</g>
	</g>
	<g>
		<g>
			<rect x="1177.2" y="198.1" class="st0" width="6.7" height="98.9"/>
		</g>
	</g>
	<g>
		<g>
			<polygon class="st0" points="1170.2,297 1176.9,297 1176.9,297 1170.2,297 			"/>
		</g>
	</g>
	<g>
		<g>
			<polygon class="st0" points="1163.1,297 1169.8,297 1169.8,297 1163.1,297 			"/>
		</g>
	</g>
</g>
<g class="st1">
	<line class="st2" x1="80" y1="306.7" x2="496.4" y2="364.5"/>
	<line class="st3" x1="568.4" y1="364.5" x2="1058" y2="780"/>
	<g>
		<rect x="496.4" y="364.5" class="st4" width="72" height="12"/>
		<text transform="matrix(1 0 0 1 509.0635 373.5151)" class="st5 st6 st7">Algeria</text>
	</g>
</g>
<g class="st1">
	<line class="st2" x1="80" y1="718" x2="496.4" y2="464.9"/>
	<line class="st3" x1="568.4" y1="464.9" x2="1058" y2="476.3"/>
	<g>
		<rect x="496.4" y="464.9" class="st4" width="72" height="12"/>
		<text transform="matrix(1 0 0 1 510.2314 473.8762)" class="st5 st6 st7">Angola</text>
	</g>
</g>
<g class="st1">
	<line class="st2" x1="80" y1="370.9" x2="496.4" y2="182.4"/>
	<line class="st3" x1="568.4" y1="182.4" x2="1058" y2="118.3"/>
	<g>
		<rect x="496.4" y="182.4" class="st4" width="72" height="12"/>
		<text transform="matrix(1 0 0 1 503.0066 191.428)" class="st5 st6 st7">Botswana</text>
	</g>
</g>
<g class="st1">
	<line class="st2" x1="80" y1="306.2" x2="496.4" y2="671.1"/>
	<line class="st3" x1="568.4" y1="671.1" x2="1058" y2="399.9"/>
	<g>
		<rect x="496.4" y="671.1" class="st4" width="72" height="12"/>
		<text transform="matrix(1 0 0 1 502.3406 680.0549)" class="st5 st6 st7">Cameroon</text>
	</g>
</g>
<g class="st1">
	<line class="st2" x1="80" y1="60" x2="496.4" y2="449.6"/>
	<line class="st3" x1="568.4" y1="449.6" x2="1058" y2="667.4"/>
	<g>
		<rect x="496.4" y="449.6" class="st4" width="72" height="12"/>
		<text transform="matrix(1 0 0 1 507.2273 458.5508)" class="st5 st6 st7">Ethiopia</text>
	</g>
</g>
<g class="st1">
	<line class="st2" x1="80" y1="476.8" x2="496.4" y2="561.9"/>
	<line class="st3" x1="568.4" y1="561.9" x2="1058" y2="500.4"/>
	<g>
		<rect x="496.4" y="561.9" class="st4" width="72" height="12"/>
		<text transform="matrix(1 0 0 1 512.95 570.9277)" class="st5 st6 st7">Gabon</text>
	</g>
</g>
<g class="st1">
	<line class="st2" x1="80" y1="349.8" x2="496.4" y2="483"/>
	<line class="st3" x1="568.4" y1="483" x2="1058" y2="474.3"/>
	<g>
		<rect x="496.4" y="483" class="st4" width="72" height="12"/>
		<text transform="matrix(1 0 0 1 513.1726 491.9746)" class="st5 st6 st7">Ghana</text>
	</g>
</g>
<g class="st1">
	<line class="st2" x1="80" y1="337.8" x2="496.4" y2="476"/>
	<line class="st3" x1="568.4" y1="476" x2="1058" y2="518.6"/>
	<g>
		<rect x="496.4" y="476" class="st4" width="72" height="12"/>
		<text transform="matrix(1 0 0 1 496.448 484.9678)" class="st5 st6 st7">Madagascar</text>
	</g>
</g>
<g class="st1">
	<line class="st2" x1="80" y1="487.6" x2="496.4" y2="585.1"/>
	<line class="st3" x1="568.4" y1="585.1" x2="1058" y2="407.9"/>
	<g>
		<rect x="496.4" y="585.1" class="st4" width="72" height="12"/>
		<text transform="matrix(1 0 0 1 511.1179 594.095)" class="st5 st6 st7">Malawi</text>
	</g>
</g>
<g class="st1">
	<line class="st2" x1="80" y1="271.4" x2="496.4" y2="354.6"/>
	<line class="st3" x1="568.4" y1="354.6" x2="1058" y2="671.4"/>
	<g>
		<rect x="496.4" y="354.6" class="st4" width="72" height="12"/>
		<text transform="matrix(1 0 0 1 518.5613 363.5565)" class="st5 st6 st7">Mali</text>
	</g>
</g>
<g class="st1">
	<line class="st2" x1="80" y1="518" x2="496.4" y2="657.2"/>
	<line class="st3" x1="568.4" y1="657.2" x2="1058" y2="683.5"/>
	<g>
		<rect x="496.4" y="657.2" class="st4" width="72" height="12"/>
		<text transform="matrix(1 0 0 1 500.2292 666.2202)" class="st5 st6 st7">Mauritania</text>
	</g>
</g>
<g class="st1">
	<line class="st2" x1="80" y1="162.1" x2="496.4" y2="173.5"/>
	<line class="st3" x1="568.4" y1="173.5" x2="1058" y2="615.1"/>
	<g>
		<rect x="496.4" y="173.5" class="st4" width="72" height="12"/>
		<text transform="matrix(1 0 0 1 503.3972 182.4832)" class="st5 st6 st7">Mauritius</text>
	</g>
</g>
<g class="st1">
	<line class="st2" x1="80" y1="474.5" x2="496.4" y2="340.2"/>
	<line class="st3" x1="568.4" y1="340.2" x2="1058" y2="516.5"/>
	<g>
		<rect x="496.4" y="340.2" class="st4" width="72" height="12"/>
		<text transform="matrix(1 0 0 1 505.0652 349.1553)" class="st5 st6 st7">Morocco</text>
	</g>
</g>
<g class="st1">
	<line class="st2" x1="80" y1="380.7" x2="496.4" y2="595.8"/>
	<line class="st3" x1="568.4" y1="595.8" x2="1058" y2="418"/>
	<g>
		<rect x="496.4" y="595.8" class="st4" width="72" height="12"/>
		<text transform="matrix(1 0 0 1 497.5632 604.7692)" class="st5 st6 st7">Mozambique</text>
	</g>
</g>
<g class="st1">
	<line class="st2" x1="80" y1="533.6" x2="496.4" y2="225.2"/>
	<line class="st3" x1="568.4" y1="225.2" x2="1058" y2="102.2"/>
	<g>
		<rect x="496.4" y="225.2" class="st4" width="72" height="12"/>
		<text transform="matrix(1 0 0 1 509.95 234.1843)" class="st5 st6 st7">Namibia</text>
	</g>
</g>
<g class="st1">
	<line class="st2" x1="80" y1="780" x2="496.4" y2="780"/>
	<line class="st3" x1="568.4" y1="780" x2="1058" y2="470.3"/>
	<g>
		<rect x="496.4" y="780" class="st4" width="72" height="12"/>
		<text transform="matrix(1 0 0 1 509.95 789.0031)" class="st5 st6 st7">Nigeria</text>
	</g>
</g>
<g class="st1">
	<line class="st2" x1="80" y1="161.1" x2="496.4" y2="300.6"/>
	<line class="st3" x1="568.4" y1="300.6" x2="1058" y2="524.6"/>
	<g>
		<rect x="496.4" y="300.6" class="st4" width="72" height="12"/>
		<text transform="matrix(1 0 0 1 507.5007 309.6191)" class="st5 st6 st7">Senegal</text>
	</g>
</g>
<g class="st1">
	<line class="st2" x1="80" y1="559.2" x2="496.4" y2="60"/>
	<line class="st3" x1="568.4" y1="60" x2="1058" y2="60"/>
	<g>
		<rect x="496.4" y="60" class="st4" width="72" height="12"/>
		<text transform="matrix(1 0 0 1 494.1179 69.0029)" class="st5 st6 st7">South Africa</text>
	</g>
</g>
<g>
	<line class="st2" x1="80" y1="451.1" x2="496.4" y2="67.9"/>
	<line class="st3" x1="568.4" y1="67.9" x2="1058" y2="615.1"/>
	<g>
		<rect x="496.4" y="67.9" class="st4" width="72" height="12"/>
		<text transform="matrix(1 0 0 1 510.6179 76.9341)" class="st5 st6 st7">Tunisia</text>
	</g>
</g>
<g class="st1">
	<line class="st2" x1="80" y1="351.9" x2="496.4" y2="463.9"/>
	<line class="st3" x1="568.4" y1="463.9" x2="1058" y2="482.3"/>
	<g>
		<rect x="496.4" y="463.9" class="st4" width="72" height="12"/>
		<text transform="matrix(1 0 0 1 509.7839 472.8625)" class="st5 st6 st7">Uganda</text>
	</g>
</g>
<g class="st1">
	<line class="st2" x1="80" y1="433.2" x2="496.4" y2="411.2"/>
	<line class="st3" x1="568.4" y1="411.2" x2="1058" y2="186.7"/>
	<g>
		<rect x="496.4" y="411.2" class="st4" width="72" height="12"/>
		<text transform="matrix(1 0 0 1 512.0066 420.237)" class="st5 st6 st7">Zambia</text>
	</g>
</g>
<g class="st1">
	<line class="st2" x1="80" y1="583.4" x2="496.4" y2="382.9"/>
	<line class="st3" x1="568.4" y1="382.9" x2="1058" y2="466.3"/>
	<g>
		<rect x="496.4" y="382.9" class="st4" width="72" height="12"/>
		<text transform="matrix(1 0 0 1 504.5632 391.8818)" class="st5 st6 st7">Zimbabwe</text>
	</g>
</g>
<line class="st8" x1="80" y1="60" x2="80" y2="780"/>
<line class="st8" x1="496.4" y1="60" x2="496.4" y2="780"/>
<line class="st8" x1="568.4" y1="60" x2="568.4" y2="780"/>
<line class="st8" x1="1058" y1="60" x2="1058" y2="780"/>
<text transform="matrix(1 0 0 1 77.3579 46.7357)" class="st9 st6 st7">economic complexity index</text>
<text transform="matrix(1 0 0 1 1148.031 116.7338)" class="st9 st6 st7">economic complexity index</text>
<text transform="matrix(1 0 0 1 49.0137 66.0029)" class="st9 st6 st7">-2.2</text>
<text transform="matrix(1 0 0 1 1064.7355 66.0029)" class="st9 st6 st7">max value</text>
<text transform="matrix(1 0 0 1 1064.7355 780.0029)" class="st9 st6 st7">min value</text>
<text transform="matrix(1 0 0 1 49.0137 780.0029)" class="st9 st6 st7">-1.1</text>
<text transform="matrix(1 0 0 1 472.6774 46.7357)" class="st9 st6 st7">gini</text>
<text transform="matrix(1 0 0 1 1148.0309 79.934)" class="st9 st10 st11">tunisia</text>
<text transform="matrix(1 0 0 1 1148.0078 93.6138)" class="st5 st12 st7">YEARLY DATA</text>
<text transform="matrix(1 0 0 1 568.2117 46.7357)" class="st9 st6 st7">gini</text>
<text transform="matrix(1 0 0 1 978.1224 46.7357)" class="st9 st6 st7">GDP per capita</text>
<g>
	<rect x="85.8" y="457.9" class="st13" width="45.9" height="33.5"/>
	<text transform="matrix(1 0 0 1 95.9541 480.0851)" class="st14 st9 st15 st7">0.2</text>
</g>
<g>
	<rect x="433.6" y="76.9" class="st16" width="55.9" height="33.5"/>
	<text transform="matrix(1 0 0 1 443.8754 99.0859)" class="st9 st15 st7">66.6</text>
</g>
<g>
	<rect x="990.7" y="617.6" class="st17" width="55.9" height="33.5"/>
	<text transform="matrix(1 0 0 1 1000.9854 639.8022)" class="st18 st9 st15 st7">66.6</text>
</g>
<g>
	<text transform="matrix(1 0 0 1 1148.0309 295.7866)" class="st5 st6">0</text>
	<text transform="matrix(1 0 0 1 1148.0309 269.7383)" class="st5 st6">1</text>
	<text transform="matrix(1 0 0 1 1148.0309 243.6895)" class="st5 st6">2</text>
	<text transform="matrix(1 0 0 1 1148.0309 217.6406)" class="st5 st6">3</text>
	<text transform="matrix(1 0 0 1 1148.0309 191.5918)" class="st5 st6">4</text>
	<text transform="matrix(1 0 0 1 1148.0309 165.5435)" class="st5 st6">5</text>
	<text transform="matrix(1 0 0 1 1148.0309 139.4946)" class="st5 st6">6</text>
</g>
<g>
	<g>
		<line class="st8" x1="1162.6" y1="296" x2="1168.1" y2="296"/>
		<line class="st8" x1="1162.6" y1="269.9" x2="1168.1" y2="269.9"/>
		<line class="st8" x1="1162.6" y1="243.9" x2="1168.1" y2="243.9"/>
		<line class="st8" x1="1162.6" y1="217.8" x2="1168.1" y2="217.8"/>
		<line class="st8" x1="1162.6" y1="191.8" x2="1168.1" y2="191.8"/>
		<line class="st8" x1="1162.6" y1="165.7" x2="1168.1" y2="165.7"/>
		<line class="st8" x1="1162.6" y1="139.7" x2="1168.1" y2="139.7"/>
	</g>
	<g>
	</g>
</g>
<g>
	<g>
	</g>
	<g>
	</g>
	<g>
	</g>
	<g>
	</g>
	<g>
	</g>
	<g>
	</g>
	<g>
	</g>
	<g>
	</g>
	<g>
	</g>
	<g>
	</g>
	<g>
	</g>
	<g>
	</g>
	<g>
	</g>
	<g>
	</g>
	<g>
	</g>
	<g>
	</g>
	<g>
	</g>
	<g>
	</g>
	<g>
	</g>
	<g>
	</g>
	<g>
	</g>
</g>
<g>
	<g>
		<line class="st19" x1="2047.5" y1="383.9" x2="2491" y2="383.9"/>
		<g>
			<g>
				<line class="st19" x1="2047.5" y1="383.9" x2="2047.5" y2="377.3"/>
				<line class="st19" x1="2491" y1="383.9" x2="2491" y2="377.3"/>
			</g>
			<g>
			</g>
		</g>
	</g>
	<g>
		<g>
			<text transform="matrix(1 0 0 1 2033.4935 443.7492)" class="st9 st6">-2</text>
			<text transform="matrix(1 0 0 1 2033.4935 417.7003)" class="st9 st6">-1</text>
			<text transform="matrix(1 0 0 1 2036.1576 391.6515)" class="st9 st6">0</text>
			<text transform="matrix(1 0 0 1 2036.1576 365.6032)" class="st9 st6">1</text>
			<text transform="matrix(1 0 0 1 2036.1576 339.5544)" class="st9 st6">2</text>
			<text transform="matrix(1 0 0 1 2036.1576 313.5055)" class="st9 st6">3</text>
			<text transform="matrix(1 0 0 1 2036.1576 287.4567)" class="st9 st6">4</text>
			<text transform="matrix(1 0 0 1 2036.1576 261.4084)" class="st9 st6">5</text>
			<text transform="matrix(1 0 0 1 2036.1576 235.3595)" class="st9 st6">6</text>
			<text transform="matrix(1 0 0 1 2036.1576 209.3107)" class="st9 st6">7</text>
			<text transform="matrix(1 0 0 1 2036.1576 183.2624)" class="st9 st6">8</text>
		</g>
		<line class="st19" x1="2047.5" y1="436" x2="2047.5" y2="175.5"/>
		<g>
			<g>
				<line class="st19" x1="2047.5" y1="436" x2="2058.6" y2="436"/>
				<line class="st19" x1="2047.5" y1="409.9" x2="2058.6" y2="409.9"/>
				<line class="st19" x1="2047.5" y1="383.9" x2="2058.6" y2="383.9"/>
				<line class="st19" x1="2047.5" y1="357.8" x2="2058.6" y2="357.8"/>
				<line class="st19" x1="2047.5" y1="331.8" x2="2058.6" y2="331.8"/>
				<line class="st19" x1="2047.5" y1="305.7" x2="2058.6" y2="305.7"/>
				<line class="st19" x1="2047.5" y1="279.7" x2="2058.6" y2="279.7"/>
				<line class="st19" x1="2047.5" y1="253.6" x2="2058.6" y2="253.6"/>
				<line class="st19" x1="2047.5" y1="227.6" x2="2058.6" y2="227.6"/>
				<line class="st19" x1="2047.5" y1="201.5" x2="2058.6" y2="201.5"/>
				<line class="st19" x1="2047.5" y1="175.5" x2="2058.6" y2="175.5"/>
			</g>
			<g>
			</g>
		</g>
	</g>
	<g>
		<g>
			<g>
				<rect x="2470.4" y="292.7" class="st20" width="20.1" height="91.2"/>
			</g>
		</g>
		<g>
			<g>
				<rect x="2449.3" y="305.7" class="st21" width="20.1" height="78.1"/>
			</g>
		</g>
		<g>
			<g>
				<rect x="2428.2" y="323.9" class="st22" width="20.1" height="59.9"/>
			</g>
		</g>
		<g>
			<g>
				<rect x="2407.1" y="357.8" class="st23" width="20.1" height="26"/>
			</g>
		</g>
		<g>
			<g>
				<rect x="2386" y="355.2" class="st24" width="20.1" height="28.7"/>
			</g>
		</g>
		<g>
			<g>
				<rect x="2364.8" y="323.9" class="st25" width="20.1" height="59.9"/>
			</g>
		</g>
		<g>
			<g>
				<rect x="2343.7" y="305.8" class="st26" width="20.1" height="78"/>
			</g>
		</g>
		<g>
			<g>
				<rect x="2322.6" y="279.7" class="st27" width="20.1" height="104.1"/>
			</g>
		</g>
		<g>
			<g>
				<rect x="2301.5" y="383.9" class="st20" width="20.1" height="50"/>
			</g>
		</g>
		<g>
			<g>
				<rect x="2280.4" y="292.4" class="st21" width="20.1" height="91.5"/>
			</g>
		</g>
		<g>
			<g>
				<rect x="2259.2" y="304.6" class="st22" width="20.1" height="79.3"/>
			</g>
		</g>
		<g>
			<g>
				<rect x="2238.1" y="273.5" class="st23" width="20.1" height="110.4"/>
			</g>
		</g>
		<g>
			<g>
				<rect x="2217" y="209.1" class="st24" width="20.1" height="174.8"/>
			</g>
		</g>
		<g>
			<g>
				<rect x="2195.9" y="247.3" class="st25" width="20.1" height="136.6"/>
			</g>
		</g>
		<g>
			<g>
				<rect x="2174.8" y="293" class="st26" width="20.1" height="90.8"/>
			</g>
		</g>
		<g>
			<g>
				<rect x="2153.7" y="221.4" class="st27" width="20.1" height="162.4"/>
			</g>
		</g>
		<g>
			<g>
				<rect x="2132.5" y="261.4" class="st20" width="20.1" height="122.5"/>
			</g>
		</g>
		<g>
			<g>
				<rect x="2111.4" y="349.4" class="st21" width="20.1" height="34.5"/>
			</g>
		</g>
		<g>
			<g>
				<rect x="2090.3" y="285" class="st22" width="20.1" height="98.9"/>
			</g>
		</g>
		<g>
			<g>
				<polygon class="st23" points="2069.2,383.9 2089.2,383.9 2089.2,383.9 2069.2,383.9 				"/>
			</g>
		</g>
		<g>
			<g>
				<polygon class="st24" points="2048.1,383.9 2068.1,383.9 2068.1,383.9 2048.1,383.9 				"/>
			</g>
		</g>
	</g>
	<g>
		<g>
		</g>
		<g>
		</g>
		<g>
		</g>
		<g>
		</g>
		<g>
		</g>
		<g>
		</g>
		<g>
		</g>
		<g>
		</g>
		<g>
		</g>
		<g>
		</g>
		<g>
		</g>
		<g>
		</g>
		<g>
		</g>
		<g>
		</g>
		<g>
		</g>
		<g>
		</g>
		<g>
		</g>
		<g>
		</g>
		<g>
		</g>
		<g>
		</g>
		<g>
		</g>
	</g>
</g>
<line class="st8" x1="1148" y1="322.6" x2="1317.4" y2="322.6"/>
<g>
	<g>
		<g>
			<rect x="1304.2" y="435.7" class="st28" width="6.7" height="91.2"/>
		</g>
	</g>
	<g>
		<g>
			<rect x="1297.2" y="448.7" class="st28" width="6.7" height="78.1"/>
		</g>
	</g>
	<g>
		<g>
			<rect x="1290.1" y="467" class="st28" width="6.7" height="59.9"/>
		</g>
	</g>
	<g>
		<g>
			<rect x="1283.1" y="500.8" class="st28" width="6.7" height="26"/>
		</g>
	</g>
	<g>
		<g>
			<rect x="1276" y="498.2" class="st28" width="6.7" height="28.7"/>
		</g>
	</g>
	<g>
		<g>
			<rect x="1269" y="467" class="st28" width="6.7" height="59.9"/>
		</g>
	</g>
	<g>
		<g>
			<rect x="1261.9" y="448.8" class="st28" width="6.7" height="78"/>
		</g>
	</g>
	<g>
		<g>
			<rect x="1254.8" y="422.7" class="st28" width="6.7" height="104.1"/>
		</g>
	</g>
	<g>
		<g>
			<rect x="1240.7" y="435.4" class="st28" width="6.7" height="91.5"/>
		</g>
	</g>
	<g>
		<g>
			<rect x="1233.7" y="447.6" class="st28" width="6.7" height="79.3"/>
		</g>
	</g>
	<g>
		<g>
			<rect x="1226.6" y="416.5" class="st28" width="6.7" height="110.4"/>
		</g>
	</g>
	<g>
		<g>
			<rect x="1219.6" y="369.4" class="st28" width="6.7" height="157.5"/>
		</g>
	</g>
	<g>
		<g>
			<rect x="1212.5" y="390.3" class="st28" width="6.7" height="136.6"/>
		</g>
	</g>
	<g>
		<g>
			<rect x="1205.4" y="436.1" class="st28" width="6.7" height="90.8"/>
		</g>
	</g>
	<g>
		<g>
			<rect x="1198.4" y="364.4" class="st28" width="6.7" height="162.4"/>
		</g>
	</g>
	<g>
		<g>
			<rect x="1191.3" y="404.4" class="st28" width="6.7" height="122.5"/>
		</g>
	</g>
	<g>
		<g>
			<rect x="1184.3" y="492.4" class="st28" width="6.7" height="34.5"/>
		</g>
	</g>
	<g>
		<g>
			<rect x="1177.2" y="428" class="st28" width="6.7" height="98.9"/>
		</g>
	</g>
	<g>
		<g>
			<polygon class="st28" points="1170.2,526.9 1176.9,526.9 1176.9,526.9 1170.2,526.9 			"/>
		</g>
	</g>
	<g>
		<g>
			<polygon class="st28" points="1163.1,526.9 1169.8,526.9 1169.8,526.9 1163.1,526.9 			"/>
		</g>
	</g>
</g>
<text transform="matrix(1 0 0 1 1148.031 346.6234)" class="st9 st6 st7">GINI</text>
<g>
	<text transform="matrix(1 0 0 1 1148.0309 525.6763)" class="st5 st6">0</text>
	<text transform="matrix(1 0 0 1 1148.0309 499.6279)" class="st5 st6">1</text>
	<text transform="matrix(1 0 0 1 1148.0309 473.5791)" class="st5 st6">2</text>
	<text transform="matrix(1 0 0 1 1148.0309 447.5303)" class="st5 st6">3</text>
	<text transform="matrix(1 0 0 1 1148.0309 421.4814)" class="st5 st6">4</text>
	<text transform="matrix(1 0 0 1 1148.0309 395.4331)" class="st5 st6">5</text>
	<text transform="matrix(1 0 0 1 1148.0309 369.3843)" class="st5 st6">6</text>
</g>
<g>
	<g>
		<line class="st8" x1="1162.6" y1="525.9" x2="1168.1" y2="525.9"/>
		<line class="st8" x1="1162.6" y1="499.8" x2="1168.1" y2="499.8"/>
		<line class="st8" x1="1162.6" y1="473.8" x2="1168.1" y2="473.8"/>
		<line class="st8" x1="1162.6" y1="447.7" x2="1168.1" y2="447.7"/>
		<line class="st8" x1="1162.6" y1="421.7" x2="1168.1" y2="421.7"/>
		<line class="st8" x1="1162.6" y1="395.6" x2="1168.1" y2="395.6"/>
		<line class="st8" x1="1162.6" y1="369.6" x2="1168.1" y2="369.6"/>
	</g>
	<g>
	</g>
</g>
<line class="st8" x1="1148" y1="552.5" x2="1317.4" y2="552.5"/>
<line class="st8" x1="1148" y1="552.4" x2="1317.4" y2="552.4"/>
<g>
	<g>
		<g>
			<rect x="1304.2" y="665.6" class="st29" width="6.7" height="91.2"/>
		</g>
	</g>
	<g>
		<g>
			<rect x="1297.2" y="678.6" class="st29" width="6.7" height="78.1"/>
		</g>
	</g>
	<g>
		<g>
			<rect x="1290.1" y="696.8" class="st29" width="6.7" height="59.9"/>
		</g>
	</g>
	<g>
		<g>
			<rect x="1283.1" y="730.7" class="st29" width="6.7" height="26"/>
		</g>
	</g>
	<g>
		<g>
			<rect x="1276" y="728.1" class="st29" width="6.7" height="28.7"/>
		</g>
	</g>
	<g>
		<g>
			<rect x="1269" y="696.8" class="st29" width="6.7" height="59.9"/>
		</g>
	</g>
	<g>
		<g>
			<rect x="1261.9" y="678.7" class="st29" width="6.7" height="78"/>
		</g>
	</g>
	<g>
		<g>
			<rect x="1254.8" y="652.6" class="st29" width="6.7" height="104.1"/>
		</g>
	</g>
	<g>
		<g>
			<rect x="1240.7" y="665.3" class="st29" width="6.7" height="91.5"/>
		</g>
	</g>
	<g>
		<g>
			<rect x="1233.7" y="677.4" class="st29" width="6.7" height="79.3"/>
		</g>
	</g>
	<g>
		<g>
			<rect x="1226.6" y="646.3" class="st29" width="6.7" height="110.4"/>
		</g>
	</g>
	<g>
		<g>
			<rect x="1219.6" y="599.2" class="st29" width="6.7" height="157.5"/>
		</g>
	</g>
	<g>
		<g>
			<rect x="1212.5" y="620.1" class="st29" width="6.7" height="136.6"/>
		</g>
	</g>
	<g>
		<g>
			<rect x="1205.4" y="665.9" class="st29" width="6.7" height="90.8"/>
		</g>
	</g>
	<g>
		<g>
			<rect x="1198.4" y="594.3" class="st29" width="6.7" height="162.4"/>
		</g>
	</g>
	<g>
		<g>
			<rect x="1191.3" y="634.2" class="st29" width="6.7" height="122.5"/>
		</g>
	</g>
	<g>
		<g>
			<rect x="1184.3" y="722.3" class="st29" width="6.7" height="34.5"/>
		</g>
	</g>
	<g>
		<g>
			<rect x="1177.2" y="657.8" class="st29" width="6.7" height="98.9"/>
		</g>
	</g>
	<g>
		<g>
			<polygon class="st29" points="1170.2,756.7 1176.9,756.7 1176.9,756.7 1170.2,756.7 			"/>
		</g>
	</g>
	<g>
		<g>
			<polygon class="st29" points="1163.1,756.7 1169.8,756.7 1169.8,756.7 1163.1,756.7 			"/>
		</g>
	</g>
</g>
<text transform="matrix(1 0 0 1 1148.031 576.4674)" class="st9 st6 st7">GDP PER CAPITA</text>
<g>
	<text transform="matrix(1 0 0 1 1148.0309 755.5203)" class="st5 st6">0</text>
	<text transform="matrix(1 0 0 1 1148.0309 729.4719)" class="st5 st6">1</text>
	<text transform="matrix(1 0 0 1 1148.0309 703.4231)" class="st5 st6">2</text>
	<text transform="matrix(1 0 0 1 1148.0309 677.3743)" class="st5 st6">3</text>
	<text transform="matrix(1 0 0 1 1148.0309 651.3254)" class="st5 st6">4</text>
	<text transform="matrix(1 0 0 1 1148.0309 625.2771)" class="st5 st6">5</text>
	<text transform="matrix(1 0 0 1 1148.0309 599.2283)" class="st5 st6">6</text>
</g>
<g>
	<g>
		<line class="st8" x1="1162.6" y1="755.7" x2="1168.1" y2="755.7"/>
		<line class="st8" x1="1162.6" y1="729.7" x2="1168.1" y2="729.7"/>
		<line class="st8" x1="1162.6" y1="703.6" x2="1168.1" y2="703.6"/>
		<line class="st8" x1="1162.6" y1="677.6" x2="1168.1" y2="677.6"/>
		<line class="st8" x1="1162.6" y1="651.5" x2="1168.1" y2="651.5"/>
		<line class="st8" x1="1162.6" y1="625.5" x2="1168.1" y2="625.5"/>
		<line class="st8" x1="1162.6" y1="599.4" x2="1168.1" y2="599.4"/>
	</g>
	<g>
	</g>
</g>
<line class="st8" x1="1148" y1="782.3" x2="1317.4" y2="782.3"/>
</svg>
